<?xml version="1.0" standalone="no"?>
<!DOCTYPE svg PUBLIC "-//W3C//DTD SVG 20010904//EN"
 "http://www.w3.org/TR/2001/REC-SVG-20010904/DTD/svg10.dtd">
<svg version="1.0" xmlns="http://www.w3.org/2000/svg"
 width="176.000000pt" height="176.000000pt" viewBox="0 0 176.000000 176.000000"
 preserveAspectRatio="xMidYMid meet">
<metadata>
Created by potrace 1.14, written by Peter Selinger 2001-2017
</metadata>
<g transform="translate(0.000000,176.000000) scale(0.100000,-0.100000)"
fill="#000000" stroke="none">
<path d="M774 1682 c-7 -4 -11 -45 -11 -111 0 -112 -4 -121 -57 -121 -17 0
-40 -10 -54 -22 -21 -20 -34 -23 -112 -23 -49 0 -91 -3 -95 -7 -9 -9 -14 -50
-20 -163 -7 -149 -16 -238 -26 -257 -23 -42 -1 -138 41 -183 20 -22 22 -28 10
-35 -8 -5 -17 -7 -21 -4 -4 2 -11 -1 -16 -8 -7 -13 -9 -18 -12 -38 0 -5 -17
-12 -36 -16 -50 -9 -66 -27 -55 -61 5 -16 15 -49 22 -75 7 -27 16 -48 21 -48
5 0 7 -7 4 -14 -7 -17 36 -132 58 -156 21 -24 19 -31 -19 -72 -19 -20 -33 -45
-32 -55 2 -16 39 -41 70 -47 6 -2 25 -9 41 -16 54 -23 174 -58 179 -53 3 3 11
1 18 -4 7 -5 40 -8 73 -7 95 4 205 12 265 19 30 3 75 8 100 10 115 11 202 22
235 29 11 2 26 5 32 5 20 1 42 53 33 77 -8 20 -36 46 -76 70 -15 9 -16 14 -8
25 7 8 15 30 20 49 10 44 8 38 22 86 7 23 9 49 6 58 -3 9 -2 16 3 16 5 0 15
16 22 36 12 32 11 38 -7 57 -35 38 -32 52 13 52 39 0 40 1 40 35 0 33 -4 37
-75 75 -60 32 -74 45 -71 60 2 11 4 72 5 136 2 63 6 122 11 129 5 7 9 40 11
72 1 33 5 62 8 65 3 4 6 19 6 34 0 26 -20 39 -72 44 -91 10 -120 18 -143 39
-14 13 -39 30 -54 38 l-30 14 39 99 c22 54 37 102 34 107 -24 38 -300 87 -340
60z"/>
</g>
</svg>
